<svg id="Layer_1" data-name="Layer 1" xmlns="http://www.w3.org/2000/svg" viewBox="0 0 612 792"><defs><style>.cls-1{fill:#010101;}.cls-2{fill:#231f20;}</style></defs><path class="cls-1" d="M169.89,212.75h.2A46.36,46.36,0,0,0,214,181.2a11.16,11.16,0,0,0-10.59-14.64h0a11.21,11.21,0,0,0-10.64,7.64,24,24,0,1,1-22.71-31.76H442.24A24,24,0,0,1,466,169.63,23.52,23.52,0,0,1,461.33,181a23.93,23.93,0,0,1-19,9.45h-.1a24,24,0,0,1-22.72-16.29,11.18,11.18,0,0,0-21.17,7.17,46.4,46.4,0,0,0,43.89,31.47h.19a46.33,46.33,0,0,0-.12-92.66H170a46.33,46.33,0,0,0-.12,92.66Z"/><path class="cls-1" d="M213.43,242.14l-1,.37a13.16,13.16,0,0,0-2.41,1.11,12.78,12.78,0,0,0-6,10v232.2A179.66,179.66,0,0,1,143.87,260c.26-.59.55-1.18.84-1.76a7.93,7.93,0,0,0,.44-2.63,8.14,8.14,0,0,0-15.2-4.06c-.17.34-.34.67-.49,1A196.3,196.3,0,0,0,235.64,520.7V224.16h0A46.52,46.52,0,0,1,213.43,242.14Z"/><rect class="cls-1" x="261.59" y="173.64" width="27.44" height="351.96"/><rect class="cls-1" x="318.32" y="173.64" width="27.46" height="351.96"/><path class="cls-1" d="M482.66,252.78l0-.09c-.21-.44-.42-.88-.64-1.31l0,0a8.12,8.12,0,0,0-14,.16,6.32,6.32,0,0,0-.5,1,8.09,8.09,0,0,0-.6,3.05,8.3,8.3,0,0,0,.46,2.69c.26.52.52,1.06.78,1.61a179.68,179.68,0,0,1-61.4,226.77V253.59a12.78,12.78,0,0,0-6-10,13.16,13.16,0,0,0-2.41-1.11l-1-.37a46.52,46.52,0,0,1-22.17-18h0v297a196.28,196.28,0,0,0,107.57-268.4Z"/><path class="cls-2" d="M186.71,577.09h7.06v37.19a18.36,18.36,0,0,1-1.54,8.05,13.57,13.57,0,0,1-8.82,7.42,19.5,19.5,0,0,1-4.86.7,15.11,15.11,0,0,1-9.29-2.83q-3.8-2.83-4.82-8.57l6.91-1.54a8.26,8.26,0,0,0,2.43,4.63,6.74,6.74,0,0,0,4.77,1.69,7.61,7.61,0,0,0,4.23-1,7.2,7.2,0,0,0,2.46-2.68,11.24,11.24,0,0,0,1.18-3.79,32.58,32.58,0,0,0,.29-4.33Z"/><path class="cls-2" d="M214.94,577.09V609a20.52,20.52,0,0,0,.66,5,14.49,14.49,0,0,0,2.2,4.81,12.09,12.09,0,0,0,4,3.61,14.39,14.39,0,0,0,12.34,0,12.09,12.09,0,0,0,4.05-3.61,14.7,14.7,0,0,0,2.2-4.81,20.52,20.52,0,0,0,.66-5v-31.9h7.06v33a21.34,21.34,0,0,1-1.55,8.27,19.57,19.57,0,0,1-4.26,6.43A18.82,18.82,0,0,1,236,629a22.18,22.18,0,0,1-15.88,0,18.82,18.82,0,0,1-6.39-4.19,19.6,19.6,0,0,1-4.27-6.43,21.53,21.53,0,0,1-1.54-8.27v-33Z"/><path class="cls-2" d="M263.52,577.09h18.3a21.31,21.31,0,0,1,8.23,1.36,13.85,13.85,0,0,1,5.11,3.45,11.84,11.84,0,0,1,2.61,4.7,18.58,18.58,0,0,1,.74,5,13.32,13.32,0,0,1-.89,4.81,13.61,13.61,0,0,1-2.53,4.19,14.37,14.37,0,0,1-4,3.16,13.87,13.87,0,0,1-5.32,1.58l14.77,23.74h-8.82l-13.23-22.93h-7.86v22.93h-7.06ZM270.58,600h9.26a25.33,25.33,0,0,0,4.08-.33,11,11,0,0,0,3.6-1.22,6.54,6.54,0,0,0,2.53-2.53,10.11,10.11,0,0,0,0-8.6,6.64,6.64,0,0,0-2.53-2.54,11.24,11.24,0,0,0-3.6-1.21,25.33,25.33,0,0,0-4.08-.33h-9.26Z"/><path class="cls-2" d="M327.68,577.09h6.4l22.27,52h-8.23l-5.22-12.86H318.13L313,629.12h-8.23Zm12.65,33-9.71-23.89h-.14l-9.85,23.89Z"/><path class="cls-2" d="M366.05,577.09h18.3a21.31,21.31,0,0,1,8.23,1.36,13.85,13.85,0,0,1,5.11,3.45,11.84,11.84,0,0,1,2.61,4.7,17.5,17.5,0,0,1,0,10.07,11.81,11.81,0,0,1-2.61,4.71,14,14,0,0,1-5.11,3.45,21.31,21.31,0,0,1-8.23,1.36H373.11v22.93h-7.06ZM373.11,600h9.26a25.33,25.33,0,0,0,4.08-.33,11,11,0,0,0,3.6-1.22,6.54,6.54,0,0,0,2.53-2.53,10.11,10.11,0,0,0,0-8.6,6.64,6.64,0,0,0-2.53-2.54,11.24,11.24,0,0,0-3.6-1.21,25.33,25.33,0,0,0-4.08-.33h-9.26Z"/><path class="cls-2" d="M412.57,577.09h18.31a21.34,21.34,0,0,1,8.23,1.36,13.93,13.93,0,0,1,5.11,3.45,12,12,0,0,1,2.61,4.7,17.73,17.73,0,0,1,0,10.07,11.93,11.93,0,0,1-2.61,4.71,14.06,14.06,0,0,1-5.11,3.45,21.34,21.34,0,0,1-8.23,1.36H419.63v22.93h-7.06ZM419.63,600h9.26a25.33,25.33,0,0,0,4.08-.33,10.85,10.85,0,0,0,3.6-1.22,6.63,6.63,0,0,0,2.54-2.53,10.21,10.21,0,0,0,0-8.6,6.73,6.73,0,0,0-2.54-2.54,11.08,11.08,0,0,0-3.6-1.21,25.33,25.33,0,0,0-4.08-.33h-9.26Z"/></svg>